<svg width="25" height="25" viewBox="0 0 25 25" fill="none" xmlns="http://www.w3.org/2000/svg">
<circle cx="12.5" cy="12.5" r="12.5" fill="#6FCF97"/>
<path d="M8.42886 8.42857H14.1426C14.9311 8.42857 15.5714 9.068 15.5714 9.85743V15.5711C15.5714 16.3597 14.932 17 14.1426 17H8.42886C7.64029 17 7 16.3606 7 15.5711V9.85743C7 9.06886 7.63943 8.42857 8.42886 8.42857Z" fill="white"/>
<path d="M12.4892 13.3117L17.9432 16.4763C18.4061 16.7446 19.0001 16.4197 19.0001 15.8789V9.54971C19.0001 9.00971 18.4061 8.684 17.9432 8.95314L12.4892 12.1177C12.3839 12.1778 12.2964 12.2647 12.2355 12.3695C12.1746 12.4744 12.1426 12.5935 12.1426 12.7147C12.1426 12.8359 12.1746 12.955 12.2355 13.0599C12.2964 13.1647 12.3839 13.2516 12.4892 13.3117V13.3117Z" fill="white"/>
</svg>
