<svg width="25" height="25" viewBox="0 0 25 25" fill="none" xmlns="http://www.w3.org/2000/svg">
<circle cx="12.5" cy="12.5" r="12.5" fill="#EB5757"/>
<path d="M12.5 10.3544C11.4334 10.3544 10.4 10.5237 9.43338 10.842V12.9413C9.43338 13.2054 9.28005 13.4424 9.06005 13.5508C8.40672 13.8826 7.81339 14.3093 7.28672 14.8036C7.16672 14.9255 7.00006 14.9932 6.82006 14.9932C6.63339 14.9932 6.46673 14.9187 6.34673 14.7968L4.6934 13.1174C4.63108 13.0559 4.58178 12.9822 4.54853 12.9006C4.51528 12.8191 4.49879 12.7316 4.50007 12.6433C4.50007 12.4537 4.5734 12.2844 4.6934 12.1625C6.72673 10.2054 9.47338 9 12.5 9C15.5267 9 18.2733 10.2054 20.3067 12.1625C20.4267 12.2844 20.5 12.4537 20.5 12.6433C20.5 12.833 20.4267 13.0023 20.3067 13.1242L18.6533 14.8036C18.5333 14.9255 18.3667 15 18.18 15C18 15 17.8333 14.9255 17.7133 14.8104C17.1827 14.3077 16.5831 13.8857 15.9334 13.5576C15.821 13.502 15.7263 13.4153 15.6602 13.3075C15.5942 13.1996 15.5595 13.0751 15.56 12.9481V10.8488C14.6 10.5237 13.5667 10.3544 12.5 10.3544Z" fill="white"/>
</svg>
