<svg width="45" height="45" viewBox="0 0 45 45" fill="none" xmlns="http://www.w3.org/2000/svg">
<circle cx="22.5" cy="22.5" r="22.5" fill="#56CCF2"/>
<path d="M20.8047 29.3937C20.8222 29.41 20.8385 29.4287 20.8537 29.4462C20.5627 29.3684 20.277 29.2717 19.9985 29.1568C20.142 29.1255 20.291 29.1308 20.4319 29.1722C20.5728 29.2135 20.701 29.2897 20.8047 29.3937Z" fill="white"/>
<path d="M18.5086 28.1558C18.4774 28.1871 18.4438 28.2159 18.4083 28.2422C17.9495 27.8906 17.5357 27.4839 17.1763 27.0312C17.2462 26.9322 17.336 26.8488 17.4399 26.7863C17.5438 26.7238 17.6595 26.6836 17.7798 26.6682C17.9 26.6529 18.0222 26.6626 18.1385 26.6969C18.2547 26.7312 18.3626 26.7893 18.4552 26.8675C18.5479 26.9457 18.6233 27.0423 18.6766 27.1512C18.7299 27.2601 18.7601 27.3788 18.7651 27.5C18.7701 27.6211 18.7499 27.7419 18.7057 27.8548C18.6616 27.9677 18.5945 28.0702 18.5086 28.1558V28.1558Z" fill="white"/>
<path d="M16.0995 24.5893C16.2246 24.7144 16.3088 24.8744 16.3411 25.0484C16.3734 25.2223 16.3522 25.4019 16.2803 25.5635C16.1148 25.1977 15.9813 24.8183 15.8813 24.4295C15.9619 24.4711 16.0355 24.5251 16.0995 24.5893Z" fill="white"/>
<path d="M16.0995 21.1208C16.0127 21.2077 15.9085 21.2753 15.7938 21.3192C15.8837 20.8607 16.019 20.4185 16.1952 19.9962C16.3145 20.1648 16.3704 20.3701 16.3529 20.576C16.3354 20.7818 16.2456 20.9748 16.0995 21.1208V21.1208Z" fill="white"/>
<path d="M17.2709 18.8248C17.1748 18.7289 17.1025 18.6118 17.0597 18.483C17.3689 18.0712 17.7224 17.6943 18.1132 17.3595C18.2432 17.3938 18.3635 17.4575 18.4649 17.5457C18.5662 17.634 18.6459 17.7444 18.6977 17.8685C18.7495 17.9925 18.772 18.1268 18.7635 18.2609C18.755 18.3951 18.7157 18.5255 18.6487 18.642C18.5817 18.7585 18.4887 18.858 18.377 18.9327C18.2653 19.0075 18.1379 19.0555 18.0047 19.0731C17.8714 19.0907 17.7359 19.0773 17.6086 19.0341C17.4814 18.9908 17.3658 18.9188 17.2709 18.8237V18.8248Z" fill="white"/>
<path d="M19.568 16.5615C19.5329 16.5265 19.5009 16.4887 19.4723 16.4483C19.9755 16.1901 20.5083 15.9942 21.059 15.865C21.0758 16.0444 21.0368 16.2246 20.9473 16.381C20.8577 16.5373 20.722 16.6622 20.5588 16.7384C20.3955 16.8147 20.2127 16.8386 20.0353 16.8069C19.858 16.7753 19.6947 16.6895 19.568 16.5615V16.5615Z" fill="white"/>
<path d="M24.1682 29.5185C24.5299 29.4392 24.8799 29.3318 25.2182 29.2C25.0331 29.1254 24.8281 29.1163 24.6371 29.1742C24.4461 29.2321 24.2807 29.3536 24.1682 29.5185V29.5185Z" fill="white"/>
<path d="M26.7862 28.3367C27.2575 27.9937 27.6845 27.5923 28.0555 27.1432C27.9804 27.0477 27.8863 26.9689 27.7791 26.9118C27.672 26.8547 27.5541 26.8205 27.433 26.8115C27.3118 26.8024 27.1902 26.8186 27.0757 26.8592C26.9612 26.8997 26.8564 26.9636 26.768 27.0468C26.6795 27.1301 26.6094 27.2308 26.562 27.3426C26.5146 27.4544 26.4911 27.5749 26.4928 27.6963C26.4945 27.8178 26.5214 27.9375 26.572 28.048C26.6225 28.1584 26.6954 28.2571 26.7862 28.3378V28.3367Z" fill="white"/>
<path d="M28.9258 25.8073C29.1579 25.3442 29.3388 24.8518 29.4636 24.3373C29.3021 24.3556 29.1489 24.4185 29.0212 24.519C28.8935 24.6195 28.7962 24.7535 28.7404 24.9061C28.6846 25.0587 28.6723 25.2239 28.7051 25.3831C28.7378 25.5422 28.8142 25.6891 28.9258 25.8073Z" fill="white"/>
<path d="M29.5395 21.3752C29.4383 20.839 29.2742 20.3166 29.0507 19.8188C28.9125 19.9289 28.8109 20.0782 28.7592 20.2471C28.7076 20.416 28.7082 20.5966 28.7611 20.7652C28.814 20.9337 28.9167 21.0823 29.0556 21.1914C29.1945 21.3005 29.3632 21.3649 29.5395 21.3763V21.3752Z" fill="white"/>
<path d="M28.2153 18.42C27.9137 18.0273 27.5715 17.6676 27.1945 17.3467C27.041 17.3775 26.8987 17.4489 26.7823 17.5535C26.6659 17.658 26.5796 17.7919 26.5325 17.9411C26.4854 18.0903 26.4792 18.2495 26.5145 18.4019C26.5498 18.5543 26.6253 18.6945 26.7332 18.8079C26.8411 18.9212 26.9775 19.0035 27.128 19.0462C27.2785 19.089 27.4377 19.0906 27.5891 19.0508C27.7404 19.0111 27.8784 18.9315 27.9885 18.8204C28.0986 18.7092 28.177 18.5705 28.2153 18.4188V18.42Z" fill="white"/>
<path d="M25.5098 16.5615C25.5706 16.5009 25.6221 16.4317 25.6627 16.3562C25.1416 16.1085 24.5918 15.9266 24.0258 15.8148C23.999 15.9968 24.0302 16.1826 24.115 16.3458C24.1998 16.509 24.3339 16.6414 24.4982 16.7241C24.6625 16.8067 24.8487 16.8355 25.0303 16.8063C25.2119 16.7772 25.3797 16.6915 25.5098 16.5615V16.5615Z" fill="white"/>
<path d="M23.2803 17.587C23.3663 17.6671 23.4353 17.7637 23.4831 17.871C23.5309 17.9784 23.5566 18.0942 23.5587 18.2117C23.5608 18.3292 23.5392 18.4459 23.4952 18.5549C23.4511 18.6638 23.3856 18.7628 23.3026 18.8459C23.2195 18.929 23.1205 18.9945 23.0115 19.0385C22.9026 19.0825 22.7859 19.1041 22.6684 19.102C22.5509 19.0999 22.4351 19.0742 22.3277 19.0264C22.2204 18.9786 22.1238 18.9096 22.0437 18.8237C21.8891 18.6578 21.805 18.4384 21.809 18.2117C21.813 17.985 21.9048 17.7688 22.0651 17.6084C22.2254 17.4481 22.4417 17.3563 22.6684 17.3523C22.8951 17.3483 23.1145 17.4324 23.2803 17.587V17.587Z" fill="white"/>
<path d="M20.8046 19.8842C20.8906 19.9643 20.9596 20.0609 21.0074 20.1682C21.0552 20.2755 21.0809 20.3914 21.083 20.5089C21.0851 20.6264 21.0635 20.7431 21.0194 20.852C20.9754 20.961 20.9099 21.06 20.8268 21.143C20.7438 21.2261 20.6448 21.2916 20.5358 21.3356C20.4269 21.3797 20.3102 21.4013 20.1927 21.3992C20.0752 21.3971 19.9593 21.3714 19.852 21.3236C19.7447 21.2758 19.6481 21.2068 19.568 21.1208C19.4134 20.955 19.3293 20.7356 19.3333 20.5089C19.3373 20.2822 19.4291 20.0659 19.5894 19.9056C19.7497 19.7453 19.966 19.6535 20.1927 19.6495C20.4194 19.6455 20.6388 19.7296 20.8046 19.8842Z" fill="white"/>
<path d="M18.5087 23.5965C18.6728 23.4324 18.765 23.2097 18.765 22.9776C18.765 22.7454 18.6728 22.5228 18.5087 22.3587C18.3445 22.1945 18.1219 22.1023 17.8898 22.1023C17.6576 22.1023 17.435 22.1945 17.2709 22.3587C17.1163 22.5245 17.0321 22.7439 17.0361 22.9706C17.0401 23.1973 17.132 23.4136 17.2923 23.5739C17.4526 23.7342 17.6689 23.826 17.8956 23.83C18.1223 23.834 18.3416 23.7499 18.5075 23.5953L18.5087 23.5965Z" fill="white"/>
<path d="M20.8046 24.5893C20.8906 24.6694 20.9596 24.766 21.0074 24.8734C21.0552 24.9807 21.0809 25.0966 21.083 25.2141C21.0851 25.3315 21.0635 25.4482 21.0194 25.5572C20.9754 25.6661 20.9099 25.7651 20.8268 25.8482C20.7438 25.9313 20.6448 25.9968 20.5358 26.0408C20.4269 26.0848 20.3102 26.1064 20.1927 26.1044C20.0752 26.1023 19.9593 26.0766 19.852 26.0287C19.7447 25.9809 19.6481 25.912 19.568 25.826C19.4134 25.6601 19.3293 25.4407 19.3333 25.2141C19.3373 24.9874 19.4291 24.7711 19.5894 24.6108C19.7497 24.4505 19.966 24.3586 20.1927 24.3546C20.4194 24.3506 20.6388 24.4348 20.8046 24.5893V24.5893Z" fill="white"/>
<path d="M23.2803 23.5965C23.4444 23.4324 23.5367 23.2097 23.5367 22.9776C23.5367 22.7454 23.4444 22.5228 23.2803 22.3587C23.1161 22.1945 22.8935 22.1023 22.6614 22.1023C22.4292 22.1023 22.2066 22.1945 22.0425 22.3587C21.8879 22.5245 21.8038 22.7439 21.8078 22.9706C21.8118 23.1973 21.9036 23.4136 22.0639 23.5739C22.2242 23.7342 22.4405 23.826 22.6672 23.83C22.8939 23.834 23.1133 23.7499 23.2791 23.5953L23.2803 23.5965Z" fill="white"/>
<path d="M25.5098 19.8842C25.5958 19.9643 25.6648 20.0609 25.7126 20.1682C25.7604 20.2755 25.7861 20.3914 25.7882 20.5089C25.7903 20.6264 25.7687 20.7431 25.7246 20.852C25.6806 20.961 25.6151 21.06 25.532 21.143C25.449 21.2261 25.35 21.2916 25.241 21.3356C25.1321 21.3797 25.0154 21.4013 24.8979 21.3992C24.7804 21.3971 24.6645 21.3714 24.5572 21.3236C24.4499 21.2758 24.3533 21.2068 24.2732 21.1208C24.1186 20.955 24.0345 20.7356 24.0385 20.5089C24.0425 20.2822 24.1343 20.0659 24.2946 19.9056C24.4549 19.7453 24.6712 19.6535 24.8979 19.6495C25.1246 19.6455 25.344 19.7296 25.5098 19.8842Z" fill="white"/>
<path d="M27.9855 23.5627C28.069 23.4819 28.1356 23.3853 28.1814 23.2786C28.2273 23.1718 28.2513 23.0569 28.2523 22.9408C28.2532 22.8246 28.231 22.7094 28.187 22.6019C28.143 22.4944 28.0779 22.3967 27.9957 22.3146C27.9136 22.2325 27.8158 22.1675 27.7083 22.1236C27.6007 22.0796 27.4855 22.0576 27.3693 22.0586C27.2531 22.0597 27.1383 22.0839 27.0316 22.1298C26.9249 22.1757 26.8283 22.2424 26.7477 22.326C26.5931 22.4919 26.509 22.7113 26.513 22.9379C26.517 23.1646 26.6088 23.3809 26.7691 23.5412C26.9294 23.7015 27.1457 23.7934 27.3724 23.7974C27.5991 23.8014 27.8185 23.7172 27.9843 23.5627H27.9855Z" fill="white"/>
<path d="M25.4935 24.6383C25.5794 24.7184 25.6484 24.815 25.6962 24.9224C25.744 25.0297 25.7698 25.1456 25.7718 25.2631C25.7739 25.3805 25.7523 25.4972 25.7083 25.6062C25.6643 25.7152 25.5988 25.8141 25.5157 25.8972C25.4326 25.9803 25.3336 26.0458 25.2247 26.0898C25.1157 26.1338 24.999 26.1554 24.8815 26.1534C24.764 26.1513 24.6482 26.1256 24.5409 26.0777C24.4335 26.0299 24.3369 25.961 24.2568 25.875C24.1023 25.7091 24.0181 25.4897 24.0221 25.2631C24.0261 25.0364 24.1179 24.8201 24.2783 24.6598C24.4386 24.4995 24.6549 24.4076 24.8815 24.4036C25.1082 24.3996 25.3276 24.4838 25.4935 24.6383V24.6383Z" fill="white"/>
<path d="M23.0354 28.1558C23.1213 28.0757 23.1903 27.9791 23.2381 27.8718C23.2859 27.7645 23.3116 27.6486 23.3137 27.5311C23.3158 27.4136 23.2942 27.2969 23.2502 27.188C23.2062 27.079 23.1407 26.98 23.0576 26.897C22.9745 26.8139 22.8755 26.7484 22.7665 26.7044C22.6576 26.6603 22.5409 26.6387 22.4234 26.6408C22.3059 26.6429 22.1901 26.6686 22.0827 26.7164C21.9754 26.7642 21.8788 26.8332 21.7987 26.9192C21.6441 27.085 21.56 27.3044 21.564 27.5311C21.568 27.7578 21.6598 27.9741 21.8201 28.1344C21.9804 28.2947 22.1967 28.3865 22.4234 28.3905C22.6501 28.3945 22.8695 28.3104 23.0354 28.1558V28.1558Z" fill="white"/>
<path fill-rule="evenodd" clip-rule="evenodd" d="M34.3333 22.6667C34.3333 29.1102 29.1102 34.3333 22.6667 34.3333C16.2232 34.3333 11 29.1102 11 22.6667C11 16.2232 16.2232 11 22.6667 11C29.1102 11 34.3333 16.2232 34.3333 22.6667ZM32 22.6667C32 25.142 31.0167 27.516 29.2663 29.2663C27.516 31.0167 25.142 32 22.6667 32C20.1913 32 17.8173 31.0167 16.067 29.2663C14.3167 27.516 13.3333 25.142 13.3333 22.6667C13.3333 20.1913 14.3167 17.8173 16.067 16.067C17.8173 14.3167 20.1913 13.3333 22.6667 13.3333C25.142 13.3333 27.516 14.3167 29.2663 16.067C31.0167 17.8173 32 20.1913 32 22.6667V22.6667Z" fill="white"/>
</svg>
